<svg id="Layer_1" enable-background="new 0 0 128 128" height="512" viewBox="0 0 128 128" width="512" xmlns="http://www.w3.org/2000/svg"><g><g fill="#e6e7e8"><path d="m118.892 17.143c-1.697-2.419-4.233-3.709-7.335-3.73-.02 0-.039 0-.059 0-3.747 0-5.631 2.429-6.423 3.882-.83 1.525-1.343 3.708-.66 4.75.192.293.621.523.95.506.644-.024.921-.525 1.143-.927.274-.496.688-1.245 1.556-1.63.628-.278 1.249-.015 1.662.253 1.073.698 1.853 2.124 1.853 3.391 0 1.787-.699 3.143-2.078 4.03-2.58 1.66-7.536 1.54-11.531-.279-2.626-1.196-4.56-4.451-6.606-7.897-3.418-5.752-7.295-12.284-15.8-11.982-4.146.141-7.356 1.843-9.564 5.062-2.209-3.22-5.419-4.921-9.564-5.063-8.519-.288-12.383 6.229-15.799 11.981-2.047 3.446-3.98 6.702-6.606 7.897-3.995 1.818-8.951 1.939-11.531.279-1.379-.887-2.078-2.243-2.078-4.03 0-1.267.779-2.692 1.853-3.391.412-.268 1.037-.531 1.661-.253.868.386 1.282 1.135 1.557 1.63.222.402.499.903 1.143.927.324.01.757-.213.949-.505.684-1.043.171-3.226-.659-4.751-.796-1.461-2.712-3.877-6.481-3.882-3.102.021-5.638 1.311-7.335 3.73-2.77 3.949-3.075 10.685-.779 17.161 1.961 5.53 10.27 14.865 24.834 14.864 2.842 0 5.925-.356 9.242-1.165 10.593-2.582 16.437-8.837 19.593-14.181 3.156 5.344 9 11.599 19.596 14.183 20.323 4.953 31.732-7.09 34.076-13.7 2.296-6.475 1.99-13.211-.78-17.16z"/><path d="m102.336 59.169c-5.011 1.343-10.484 1.309-16.266-.102-10.951-2.67-16.476-9.503-19.181-14.766-.344-.666-1.436-.666-1.779 0-2.705 5.263-8.229 12.096-19.181 14.766-5.78 1.411-11.254 1.445-16.266.102-.523-.142-1.065.163-1.218.684-1.093 3.715-2.195 10.279-1.251 20.454 1.507 16.213 10.641 27.771 11.028 28.255.2.25.534.383.826.374.319-.015.613-.182.789-.448l3.459-5.246 8.959 13.506c.209.315.573.487.955.44.376-.046.693-.301.82-.658l2.988-8.414 8.089 15.839c.171.335.515.545.891.545s.72-.21.891-.545l8.089-15.839 2.988 8.414c.127.357.444.611.82.658.382.046.746-.125.955-.44l8.959-13.506 3.459 5.246c.176.267.47.433.789.448.306.008.626-.124.826-.374.388-.484 9.521-12.042 11.028-28.255.944-10.175-.158-16.739-1.251-20.454-.15-.521-.692-.827-1.215-.684z"/></g><g><path d="m107.551 10.413c-5.516-.037-6.976 6.051-6.298 7.085.268.409.537-1.587 2.406-2.418 2.264-1.005 4.92 1.863 4.92 4.557 0 6.927-9.053 7.38-15.024 4.661-7.456-3.396-8.967-20.232-21.957-19.79-5.027.173-7.926 2.822-9.598 6.003-1.672-3.181-4.571-5.83-9.599-6.002-12.99-.442-14.501 16.394-21.956 19.79-5.97 2.719-15.023 2.266-15.023-4.661 0-2.695 2.656-5.562 4.92-4.557 1.87.831 2.138 2.827 2.406 2.418.678-1.033-.782-7.122-6.298-7.085-8.593.057-10.345 10.626-7.18 19.555 2.499 7.046 14.133 17.637 32.897 13.062 11.468-2.796 17.147-10.055 19.833-15.279 2.686 5.225 8.365 12.483 19.833 15.28 18.764 4.575 30.398-6.016 32.897-13.062 3.165-8.93 1.413-19.499-7.179-19.557z" fill="#6dc9f7"/><g><path d="m81.832 56.039c-11.467-2.796-17.146-10.055-19.832-15.28-2.686 5.225-8.365 12.483-19.833 15.28-6.46 1.575-12.074 1.352-16.762.096-1.018 3.465-2.158 9.912-1.213 20.08 1.496 16.1 10.812 27.721 10.812 27.721l4.293-6.508 9.794 14.767 3.766-10.601 9.143 17.907 9.144-17.907 3.766 10.601 9.794-14.767 4.293 6.508s9.316-11.621 10.812-27.721c.945-10.168-.195-16.615-1.213-20.08-4.689 1.256-10.304 1.479-16.764-.096z" fill="#0089ef"/></g><path d="m40.952 60.039c11.082-2.546 17.069-7.963 20.204-12.855.399-.622 1.289-.622 1.688 0 3.135 4.893 9.123 10.309 20.204 12.855 6.273 1.441 11.786 1.366 16.491.382-.279-1.751-.617-3.174-.944-4.286-4.688 1.257-10.303 1.479-16.763-.096-11.467-2.797-17.146-10.055-19.832-15.28-2.686 5.225-8.365 12.483-19.833 15.28-6.46 1.575-12.074 1.352-16.762.096-.327 1.112-.665 2.536-.944 4.286 4.705.984 10.217 1.059 16.491-.382z" fill="#fff"/><g fill="#3a2c60"><path d="m114.892 13.143c-1.697-2.419-4.233-3.708-7.334-3.729-.02 0-.039 0-.059 0-3.747 0-5.632 2.429-6.424 3.883-.83 1.525-1.343 3.708-.659 4.751.192.292.55.518.951.505.643-.024.919-.525 1.142-.928.274-.495.688-1.244 1.555-1.629.625-.277 1.249-.015 1.662.253 1.073.698 1.853 2.124 1.853 3.39 0 1.787-.699 3.143-2.078 4.03-2.58 1.66-7.536 1.54-11.531-.279-2.625-1.196-4.559-4.451-6.605-7.897-3.418-5.752-7.337-12.28-15.8-11.982-4.147.14-7.357 1.842-9.565 5.061-2.209-3.22-5.419-4.921-9.564-5.063-8.501-.307-12.382 6.229-15.799 11.981-2.047 3.446-3.98 6.702-6.606 7.897-3.995 1.818-8.951 1.939-11.531.279-1.379-.887-2.078-2.243-2.078-4.03 0-1.266.779-2.692 1.853-3.391.414-.267 1.038-.531 1.661-.253.868.386 1.282 1.135 1.557 1.63.222.402.499.903 1.143.927.315.011.757-.213.949-.505.684-1.043.171-3.226-.659-4.751-.796-1.46-2.658-3.883-6.481-3.882-3.102.021-5.638 1.311-7.335 3.73-2.77 3.949-3.075 10.685-.779 17.16 1.961 5.53 10.27 14.865 24.833 14.865 2.843 0 5.924-.356 9.243-1.165 10.593-2.582 16.437-8.837 19.593-14.181 3.156 5.344 8.999 11.599 19.595 14.183 20.324 4.955 31.733-7.09 34.077-13.7 2.296-6.476 1.989-13.212-.78-17.16zm-1.105 16.492c-2.062 5.813-12.909 17.012-31.718 12.425-10.95-2.67-16.475-9.503-19.18-14.766-.344-.666-1.436-.666-1.779 0-2.705 5.262-8.229 12.096-19.18 14.766-18.806 4.587-29.655-6.612-31.717-12.424-2.055-5.795-1.841-11.961.532-15.344 1.328-1.894 3.249-2.862 5.711-2.878h.042c2.207 0 3.519 1.165 4.231 2.145.212.292.39.589.536.88-.161-.098-.334-.189-.52-.272-1.127-.5-2.393-.356-3.563.405-1.627 1.058-2.763 3.141-2.763 5.067 0 2.476 1.036 4.451 2.996 5.712 3.74 2.406 9.59 1.612 13.441-.141 3.197-1.456 5.286-4.973 7.498-8.696 3.286-5.533 6.715-11.25 14.011-11.004 3.968.135 6.911 1.975 8.748 5.467.346.658 1.424.657 1.77 0 1.836-3.493 4.779-5.332 8.747-5.467 7.349-.252 10.726 5.472 14.012 11.004 2.212 3.723 4.301 7.24 7.497 8.696 3.853 1.753 9.701 2.547 13.441.141 1.96-1.261 2.996-3.236 2.996-5.712 0-1.926-1.136-4.009-2.762-5.067-1.17-.76-2.434-.906-3.564-.404-.185.082-.357.173-.518.271.146-.291.323-.587.535-.879.713-.981 2.024-2.146 4.232-2.146h.042c2.461.017 4.383.985 5.71 2.878 2.376 3.381 2.59 9.548.536 15.343z"/><path d="m99.9 75.219c-.575-.047-1.037.354-1.089.903-.212 2.291-.602 4.625-1.157 6.938-.129.537.202 1.077.739 1.206.078.019.157.028.234.028.451 0 .861-.308.972-.767.577-2.405.982-4.834 1.204-7.22.052-.55-.353-1.037-.903-1.088z"/><path d="m98.336 55.169c-5.01 1.343-10.482 1.309-16.267-.101-10.95-2.67-16.475-9.503-19.18-14.766-.344-.666-1.436-.666-1.779 0-2.705 5.262-8.229 12.095-19.181 14.766-5.783 1.409-11.257 1.443-16.267.101-.522-.141-1.065.163-1.219.684-1.091 3.717-2.193 10.283-1.249 20.454 1.507 16.213 10.64 27.771 11.027 28.255.2.25.53.391.826.374.319-.015.613-.182.789-.448l3.46-5.246 8.959 13.507c.209.315.573.484.955.44.376-.046.693-.301.82-.658l2.988-8.414 8.089 15.839c.171.335.515.545.891.545s.72-.21.891-.545l8.089-15.839 2.988 8.414c.127.357.444.611.82.658.382.043.746-.125.955-.44l8.959-13.506 3.459 5.246c.176.267.469.433.789.448.301.017.626-.124.826-.374.226-.282 5.568-7.019 8.822-17.419.165-.527-.128-1.088-.655-1.253-.53-.165-1.089.129-1.253.656-2.391 7.641-6.031 13.338-7.649 15.643l-3.502-5.31c-.185-.28-.498-.449-.834-.449h-.001c-.335 0-.648.168-.833.447l-8.688 13.099-3.096-8.716c-.134-.376-.479-.637-.877-.663-.41-.025-.774.188-.956.543l-8.252 16.161-8.254-16.163c-.182-.355-.538-.569-.956-.543-.398.026-.743.287-.877.663l-3.096 8.716-8.688-13.099c-.185-.279-.498-.447-.833-.447h-.001c-.336 0-.649.169-.834.449l-3.502 5.309c-2.281-3.257-8.584-13.278-9.771-26.064-.841-9.051-.024-15.104.922-18.781 5.069 1.181 10.546 1.07 16.295-.331 10.596-2.585 16.439-8.839 19.595-14.183 3.156 5.344 8.999 11.598 19.595 14.183 5.748 1.401 11.225 1.512 16.295.331.789 3.072 1.534 8.003 1.182 15.16-.027.552.398 1.021.95 1.048.543.008 1.021-.398 1.048-.95.403-8.204-.602-13.636-1.515-16.748-.154-.521-.695-.825-1.219-.683z"/></g></g></g></svg>